<svg id="building" xmlns="http://www.w3.org/2000/svg" xmlns:xlink="http://www.w3.org/1999/xlink" viewBox="0 0 45 56.3">
	<path fill="#ffffff" d="M23,35V12h11v23H23z M35,12h1V9H21v3h1v6H10v17l-3,0v1h31v-1l-3,0V12z M22,10h13v1H22V10z M11,19h11v16H11V19z
		 M12,20h4v4h-4V20z M13,21h2v2h-2V21z M17,20h4v4h-4V20z M18,21h2v2h-2V21z M12,25h4v4h-4V25z M13,26h2v2h-2V26z M17,25h4v4h-4V25z
		 M18,26h2v2h-2V26z M24,13h4v4h-4V13z M25,14h2v2h-2V14z M29,13h4v4h-4V13z M30,14h2v2h-2V14z M24,18h4v4h-4V18z M25,19h2v2h-2V19z
		 M29,18h4v4h-4V18z M30,19h2v2h-2V19z M24,23h4v4h-4V23z M25,24h2v2h-2V24z M29,23h4v4h-4V23z M30,24h2v2h-2V24z M24,28h4v4h-4V28z
		 M25,29h2v2h-2V29z M12,30h4v4h-4V30z M13,31h2v2h-2V31z M17,30h4v4h-4V30z M18,31h2v2h-2V31z M29,28h4v4h-4V28z M30,29h2v2h-2V29z"
		/>
</svg>
