<svg xmlns="http://www.w3.org/2000/svg" viewBox="0 0 31 27">
	<g>
		<g id="building">
			<path fill="#fff" d="M16,26V3H27V26ZM28,3h1V0H14V3h1V9H3V26H0v1H31V26H28ZM15,1H28V2H15ZM4,10H15V26H4Zm1,1H9v4H5Zm1,1H8v2H6Zm4-1h4v4H10Zm1,1h2v2H11ZM5,16H9v4H5Zm1,1H8v2H6Zm4-1h4v4H10Zm1,1h2v2H11ZM17,4h4V8H17Zm1,1h2V7H18Zm4-1h4V8H22Zm1,1h2V7H23ZM17,9h4v4H17Zm1,1h2v2H18Zm4-1h4v4H22Zm1,1h2v2H23Zm-6,4h4v4H17Zm1,1h2v2H18Zm4-1h4v4H22Zm1,1h2v2H23Zm-6,4h4v4H17Zm1,1h2v2H18ZM5,21H9v4H5Zm1,1H8v2H6Zm4-1h4v4H10Zm1,1h2v2H11Zm11-3h4v4H22Zm1,1h2v2H23Z"/>
		</g>
	</g>
</svg>