<svg xmlns="http://www.w3.org/2000/svg" viewBox="0 0 62 62">
  <g>
    <g id="geodesy">
      <path fill="#fff" d="M62,3a3,3,0,0,0-3-3H31a3,3,0,0,0-3,3V19H0v2H28v2H0v2H14.1a4.52,4.52,0,0,0,4.4,4,4.45,4.45,0,0,0,4.4-4H28v5.1c-.3,0-.7-.1-1-.1-3.9,0-7,2.7-7,6s3.1,6,7,6a3.4,3.4,0,0,0,1-.1V45a23.28,23.28,0,0,0,.4,3.8A5.72,5.72,0,0,1,24.9,46L24,44.4A8.66,8.66,0,0,0,16.4,40a8.78,8.78,0,0,0-7.6,4.4L8.1,46A5.93,5.93,0,0,1,3,49H0v2H29.1c.3.7.6,1.4.9,2H0v2H31.3a16.91,16.91,0,0,0,27.4,0H62V53H60c.3-.6.6-1.3.9-2H62V49h-.5a17.52,17.52,0,0,0,.5-4ZM18.5,27a2.47,2.47,0,0,1-2.4-2H21A2.67,2.67,0,0,1,18.5,27ZM27,40c-2.8,0-5-1.8-5-4s2.2-4,5-4a3.4,3.4,0,0,1,1,.1v7.8A3.4,3.4,0,0,1,27,40ZM9.8,47l.9-1.6a6.65,6.65,0,0,1,11.6,0l.9,1.6a7.83,7.83,0,0,0,1.6,2H8.2A7.83,7.83,0,0,0,9.8,47ZM45,60A15,15,0,0,1,30,45V3a.94.94,0,0,1,1-1H59a.94.94,0,0,1,1,1V45A15,15,0,0,1,45,60Z"/>
      <path fill="#fff" d="M32,23v3h2V24h2v2h2V24h2v2h2V24h2v2h2V24h2v2h2V24h2v2h2V24h2v2h2V4H32ZM34,6H56V22H34Z"/>
      <path fill="#fff" d="M7,40A7,7,0,0,0,7,26,7,7,0,0,0,7,40ZM7,28A5,5,0,0,1,7,38,5,5,0,0,1,7,28Z"/>
      <path fill="#fff" d="M7,36V34a1,1,0,0,1,0-2V30a3,3,0,0,0,0,6Z"/>
      <rect fill="#fff" x="36" y="18" width="8" height="2"/>
      <rect fill="#fff" x="46" y="18" width="8" height="2"/>
      <path fill="#fff" d="M32,38H44V28H32Zm2-8h8v6H34Z"/>
      <path fill="#fff" d="M46,38H58V28H46Zm2-8h8v6H48Z"/>
      <path fill="#fff" d="M32,50H44V40H32Zm2-8h8v6H34Z"/>
      <path fill="#fff" d="M46,50H58V40H46Zm2-8h8v6H48Z"/>
    </g>
  </g>
</svg>