<svg id="geodesy" xmlns="http://www.w3.org/2000/svg" xmlns:xlink="http://www.w3.org/1999/xlink" viewBox="0 0 64 80">
<g>
	<path fill="#ffffff" d="M63,4c0-1.7-1.3-3-3-3H32c-1.7,0-3,1.3-3,3v16H1v2h28v2H1v2h14.1c0.3,2.2,2.1,4,4.4,4s4.2-1.8,4.4-4H29v5.1
		c-0.3,0-0.7-0.1-1-0.1c-3.9,0-7,2.7-7,6s3.1,6,7,6c0.3,0,0.7,0,1-0.1V46c0,1.3,0.2,2.6,0.4,3.8c-1.5-0.4-2.7-1.4-3.5-2.8l-0.9-1.6
		c-1.5-2.7-4.4-4.4-7.6-4.4s-6,1.7-7.6,4.4L9.1,47c-1,1.8-3,3-5.1,3H3H1v2h2h1h26.1c0.3,0.7,0.6,1.4,0.9,2H1v2h31.3
		c3.1,4.2,8.1,7,13.7,7s10.6-2.8,13.7-7H63v-2h-2c0.3-0.6,0.6-1.3,0.9-2H63v-2h-0.5c0.3-1.3,0.5-2.6,0.5-4V4z M19.5,28
		c-1.2,0-2.2-0.9-2.4-2H22C21.7,27.1,20.7,28,19.5,28z M28,41c-2.8,0-5-1.8-5-4s2.2-4,5-4c0.3,0,0.7,0,1,0.1v7.8
		C28.7,41,28.3,41,28,41z M10.8,48l0.9-1.6c1.2-2.1,3.4-3.4,5.8-3.4s4.6,1.3,5.8,3.4l0.9,1.6c0.4,0.8,1,1.4,1.6,2H9.2
		C9.8,49.4,10.4,48.8,10.8,48z M46,61c-8.3,0-15-6.7-15-15V4c0-0.6,0.4-1,1-1h28c0.6,0,1,0.4,1,1v42C61,54.3,54.3,61,46,61z"/>
	<path fill="#ffffff" d="M33,24v1v2h2v-2h2v2h2v-2h2v2h2v-2h2v2h2v-2h2v2h2v-2h2v2h2v-2h2v2h2v-2v-1V5H33V24z M35,7h22v16H35V7z"/>
	<path fill="#ffffff" d="M8,41c3.9,0,7-3.1,7-7c0-3.9-3.1-7-7-7s-7,3.1-7,7C1,37.9,4.1,41,8,41z M8,29c2.8,0,5,2.2,5,5s-2.2,5-5,5
		s-5-2.2-5-5S5.2,29,8,29z"/>
	<path fill="#ffffff" d="M8,37v-2c-0.6,0-1-0.4-1-1s0.4-1,1-1v-2c-1.7,0-3,1.3-3,3S6.3,37,8,37z"/>
	<rect x="37" y="19" fill="#ffffff" width="8" height="2"/>
	<rect x="47" y="19" fill="#ffffff" width="8" height="2"/>
	<path fill="#ffffff" d="M33,39h12V29H33V39z M35,31h8v6h-8V31z"/>
	<path fill="#ffffff" d="M47,39h12V29H47V39z M49,31h8v6h-8V31z"/>
	<path fill="#ffffff" d="M33,51h12V41H33V51z M35,43h8v6h-8V43z"/>
	<path fill="#ffffff" d="M47,51h12V41H47V51z M49,43h8v6h-8V43z"/>
</g>
</svg>
