<svg id="peoples" xmlns="http://www.w3.org/2000/svg" xmlns:xlink="http://www.w3.org/1999/xlink" viewBox="0 0 128 160">
	<path fill="#fff" d="M64,7.8c-16.4,0-27.3,9.8-30.6,26.9h-9.3c-1.9,0-3.5,1.2-4,3C11.9,41.8,6.6,50.2,6.6,59.5v0.1l-3.1,0.9v8h1.1
		C4.4,68.7,4.2,69,4,69.3c-1,2.1-0.7,4.6,0.6,6.5c1.1,1.6,2.8,2.5,4.8,2.6C13.3,88.7,18,94,22.2,96.8l-15,7.2
		c-3.2,1.5-5.3,4.8-5.3,8.4V126H25h1.9h29.8h14.5H103v-0.1h23v-13.5c0-3.5-2.1-6.8-5.3-8.3l-15-7.2c4.2-2.8,8.9-8.2,12.8-18.4
		c2-0.2,3.7-1.1,4.8-2.6c1.4-1.9,1.6-4.4,0.6-6.5c-0.1-0.3-0.3-0.6-0.5-0.9h1.1v-8l-3.1-0.9v-0.1c0-9.2-5.3-17.7-13.5-21.8
		c-0.6-1.7-2.1-3-4-3h-9.2C91.4,17.7,80.4,7.8,64,7.8z M64,11.8c17.2,0,27.3,12.1,27.7,33.2c-11.6,2.6-21.5-2.5-30.2-7
		c-7.3-3.8-13.6-7.1-19.5-4.9c-1.8,0.7-3.4,1.8-4.9,3.5C39.7,20.7,49.2,11.8,64,11.8z M45.9,36.3c3.8,0,8.5,2.4,13.8,5.2
		c7.2,3.7,15.7,8.2,25.6,8.2c2,0,4.1-0.2,6.3-0.6c-0.3,3-0.9,6.8-1.8,9.3c-9,25.1-21,27.8-25.8,27.8c-4.7,0-16.7-2.7-25.7-27.8
		c-1-3.6-2-7.3-2-12v-0.9c2.1-4.8,4.4-7.7,7.1-8.7C44.2,36.5,45,36.4,45.9,36.3z M24,38.7h8.7c-0.2,1.9-0.4,3.9-0.4,6v0.1
		c-2,0.6-3.6,2-4.5,3.9c-1.3,2.8-1,6.4,0.9,9c1.5,2.1,3.7,3.2,6.3,3.4c0.4,1.1,0.9,2.2,1.3,3.3H7.5v-1l3.1-0.9v-3.1
		c0-6.9,3.5-13.4,9.2-17.1v7.8h4V38.9C23.8,38.8,23.9,38.7,24,38.7z M95.3,38.7h8.6c0.1,0,0.2,0.1,0.2,0.2v11.2h4v-7.8
		c5.7,3.7,9.2,10.2,9.2,17.1v3.1l3.1,0.9v1H91.7c0.4-1.1,0.9-2.2,1.3-3.3c2.6-0.1,4.8-1.3,6.3-3.4c1.9-2.6,2.2-6.2,0.9-9
		c-0.9-1.9-2.5-3.3-4.5-3.9C95.7,42.7,95.5,40.7,95.3,38.7z M95.7,49c0.3,0.4,0.6,0.8,0.9,1.3c0.7,1.5,0.5,3.6-0.5,5
		c-0.3,0.5-0.9,1-1.6,1.3C95.1,54.2,95.5,51.4,95.7,49z M32.4,49.1c0.2,2.8,0.7,5.3,1.3,7.6c-0.8-0.3-1.4-0.8-1.8-1.4
		c-1-1.4-1.2-3.5-0.5-5C31.6,49.8,32,49.4,32.4,49.1z M9.4,68.4h28.7c2.8,5.9,5.8,10.2,8.8,13.3c-6.1,12.6-13.1,14.1-15.8,14.1
		c-3.4,0-11.9-2-18.3-20l-0.5-1.5l-1.6,0.2c-1.2,0.1-2.1-0.2-2.7-1c-0.5-0.7-0.6-1.7-0.3-2.5c0.3-0.6,0.9-1,1.8-1.1L9.4,68.4z
		 M89.9,68.4h28.7l-0.1,1.5c0.9,0.1,1.5,0.4,1.8,1.1c0.3,0.7,0.2,1.8-0.3,2.5c-0.6,0.8-1.5,1.1-2.7,1l-1.6-0.2l-0.5,1.5
		c-6.5,18.1-15,20-18.3,20c-2.7,0-9.7-1.5-15.8-14.1C84,78.5,87.1,74.2,89.9,68.4z M78.1,84.6c0.9,1.8,2.1,3.9,3.7,5.9L77,88.2v-2.8
		C77.4,85.1,77.7,84.9,78.1,84.6z M50,84.6c0.3,0.3,0.7,0.6,1,0.8v2.8l-4.6,2.2C47.9,88.4,49.1,86.3,50,84.6z M55,87.9
		c3.7,1.9,6.9,2.3,9,2.3s5.3-0.4,9-2.3v2.2l-6.6,6.3l-0.1,0.1c-1.2,1.3-3.4,1.3-4.6,0L55,90.1V87.9z M51.5,92.4l7.2,6.9
		c0.3,0.3,0.6,0.6,1,0.9L57.2,122H42v-3h-4v3h-9v-13.7c0-3.1,1.8-5.9,4.5-7.2L51.5,92.4z M76.4,92.4l18,8.7c2.8,1.3,4.5,4.2,4.5,7.2
		V122H90v-3h-4v3H70.8l-2.6-21.8c0.4-0.3,0.7-0.5,1-0.9L76.4,92.4z M102.3,98.7c-0.1,1.1-0.5,2.2-1.3,3.1c-0.5-0.8-1.1-1.5-1.8-2.2
		C100.1,99.4,101.2,99.2,102.3,98.7z M25.7,98.8c1.1,0.4,2.1,0.7,2.9,0.8c-0.7,0.7-1.3,1.4-1.8,2.2C26.2,101,25.8,99.9,25.7,98.8z
		 M105.8,101.2l13.2,6.4c1.8,0.9,3,2.8,3,4.8v9.5h-5.5v-1.7h-4v1.7H103v-13.6c0-0.9-0.1-1.8-0.3-2.7
		C104.1,104.5,105.3,102.9,105.8,101.2z M22.2,101.3c0.5,1.7,1.6,3.2,3.1,4.4c-0.2,0.8-0.3,1.7-0.3,2.5V122h-9.5v-1.7h-4v1.7H6v-9.5
		c0-2,1.2-3.9,3-4.8L22.2,101.3z M63.6,101.5h0.3h0.3l2.4,20.5h-5.4L63.6,101.5z"/>
</svg>
