<svg xmlns="http://www.w3.org/2000/svg" viewBox="0 0 124.1 118.2">
	<g>
		<g id="peoples">
			<path fill="#fff" d="M62.1,0C45.7,0,34.8,9.8,31.5,26.9H22.2a4.08,4.08,0,0,0-4,3A24.39,24.39,0,0,0,4.7,51.7v.1l-3.1.9v8H2.7a5.55,5.55,0,0,0-.6.8A6.59,6.59,0,0,0,2.7,68a6,6,0,0,0,4.8,2.6C11.4,80.9,16.1,86.2,20.3,89l-15,7.2A9.31,9.31,0,0,0,0,104.6v13.6H101.1v-.1h23V104.6a9.27,9.27,0,0,0-5.3-8.3l-15-7.2c4.2-2.8,8.9-8.2,12.8-18.4a6.61,6.61,0,0,0,4.8-2.6,6.35,6.35,0,0,0,.6-6.5,4.05,4.05,0,0,0-.5-.9h1.1v-8l-3.1-.9v-.1A24.51,24.51,0,0,0,106,29.9a4.3,4.3,0,0,0-4-3H92.8C89.5,9.9,78.5,0,62.1,0Zm0,4C79.3,4,89.4,16.1,89.8,37.2c-11.6,2.6-21.5-2.5-30.2-7-7.3-3.8-13.6-7.1-19.5-4.9a12.4,12.4,0,0,0-4.9,3.5C37.8,12.9,47.3,4,62.1,4ZM44,28.5c3.8,0,8.5,2.4,13.8,5.2,7.2,3.7,15.7,8.2,25.6,8.2a35.25,35.25,0,0,0,6.3-.6,43.81,43.81,0,0,1-1.8,9.3c-9,25.1-21,27.8-25.8,27.8S45.4,75.7,36.4,50.6a42.35,42.35,0,0,1-2-12v-.9c2.1-4.8,4.4-7.7,7.1-8.7A10.08,10.08,0,0,1,44,28.5ZM22.1,30.9h8.7a56.63,56.63,0,0,0-.4,6V37a7.26,7.26,0,0,0-4.5,3.9,9.11,9.11,0,0,0,.9,9,8.2,8.2,0,0,0,6.3,3.4c.4,1.1.9,2.2,1.3,3.3H5.6v-1l3.1-.9V51.6a20.46,20.46,0,0,1,9.2-17.1v7.8h4V31.1A.22.22,0,0,1,22.1,30.9Zm71.3,0H102a.22.22,0,0,1,.2.2V42.3h4V34.5a20.46,20.46,0,0,1,9.2,17.1v3.1l3.1.9v1H89.8c.4-1.1.9-2.2,1.3-3.3a7.91,7.91,0,0,0,6.3-3.4,9.11,9.11,0,0,0,.9-9A7.26,7.26,0,0,0,93.8,37,60.47,60.47,0,0,0,93.4,30.9Zm.4,10.3a14.63,14.63,0,0,1,.9,1.3,5.27,5.27,0,0,1-.5,5,3.54,3.54,0,0,1-1.6,1.3A50,50,0,0,0,93.8,41.2Zm-63.3.1a41.43,41.43,0,0,0,1.3,7.6A3.68,3.68,0,0,1,30,47.5a5.27,5.27,0,0,1-.5-5A2.94,2.94,0,0,1,30.5,41.3ZM7.5,60.6H36.2A49.31,49.31,0,0,0,45,73.9C38.9,86.5,31.9,88,29.2,88c-3.4,0-11.9-2-18.3-20l-.5-1.5-1.6.2a2.81,2.81,0,0,1-2.7-1,2.77,2.77,0,0,1-.3-2.5,2.13,2.13,0,0,1,1.8-1.1Zm80.5,0h28.7l-.1,1.5a2,2,0,0,1,1.8,1.1,2.59,2.59,0,0,1-3,3.5l-1.6-.2-.5,1.5c-6.5,18.1-15,20-18.3,20-2.7,0-9.7-1.5-15.8-14.1A55.58,55.58,0,0,0,88,60.6ZM76.2,76.8a33.19,33.19,0,0,0,3.7,5.9l-4.8-2.3V77.6Zm-28.1,0a7,7,0,0,0,1,.8v2.8l-4.6,2.2A44.07,44.07,0,0,0,48.1,76.8Zm5,3.3a18.76,18.76,0,0,0,18,0v2.2l-6.6,6.3-.1.1a3.2,3.2,0,0,1-4.6,0l-6.7-6.4Zm-3.5,4.5,7.2,6.9a9,9,0,0,0,1,.9l-2.5,21.8H40.1v-3h-4v3h-9V100.5a8,8,0,0,1,4.5-7.2Zm24.9,0,18,8.7a8,8,0,0,1,4.5,7.2v13.7H88.1v-3h-4v3H68.9L66.3,92.4a4.3,4.3,0,0,0,1-.9Zm25.9,6.3A5.34,5.34,0,0,1,99.1,94a12.39,12.39,0,0,0-1.8-2.2A14.93,14.93,0,0,0,100.4,90.9ZM23.8,91a14.32,14.32,0,0,0,2.9.8A12.39,12.39,0,0,0,24.9,94,6,6,0,0,1,23.8,91Zm80.1,2.4,13.2,6.4a5.46,5.46,0,0,1,3,4.8v9.5h-5.5v-1.7h-4v1.7h-9.5V100.5a12.41,12.41,0,0,0-.3-2.7A9.13,9.13,0,0,0,103.9,93.4Zm-83.6.1a8.94,8.94,0,0,0,3.1,4.4,10.68,10.68,0,0,0-.3,2.5v13.8H13.6v-1.7h-4v1.7H4.1v-9.5a5.46,5.46,0,0,1,3-4.8Zm41.4.2h.6l2.4,20.5H59.3Z"/>
		</g>
	</g>
</svg>